ModelForces
version=1
nRows=4
nColumns=155
inDegrees=no

This file contains the forces exerted on a model during a simulation.

A force is a generalized force, meaning that it can be either a force (N) or a torque (Nm).

Units are S.I. units (second, meters, Newtons, ...)
Angles are in degrees.

endheader
time	glut_med1_r	glut_med2_r	glut_med3_r	glut_min1_r	glut_min2_r	glut_min3_r	semimem_r	semiten_r	bifemlh_r	bifemsh_r	sar_r	add_long_r	add_brev_r	add_mag1_r	add_mag2_r	add_mag3_r	tfl_r	pect_r	grac_r	glut_max1_r	glut_max2_r	glut_max3_r	iliacus_r	psoas_r	quad_fem_r	gem_r	peri_r	rect_fem_r	vas_med_r	vas_int_r	vas_lat_r	med_gas_r	lat_gas_r	soleus_r	tib_post_r	flex_dig_r	flex_hal_r	tib_ant_r	per_brev_r	per_long_r	per_tert_r	ext_dig_r	ext_hal_r	glut_med1_l	glut_med2_l	glut_med3_l	glut_min1_l	glut_min2_l	glut_min3_l	semimem_l	semiten_l	bifemlh_l	bifemsh_l	sar_l	add_long_l	add_brev_l	add_mag1_l	add_mag2_l	add_mag3_l	tfl_l	pect_l	grac_l	glut_max1_l	glut_max2_l	glut_max3_l	iliacus_l	psoas_l	quad_fem_l	gem_l	peri_l	rect_fem_l	vas_med_l	vas_int_l	vas_lat_l	med_gas_l	lat_gas_l	soleus_l	tib_post_l	flex_dig_l	flex_hal_l	tib_ant_l	per_brev_l	per_long_l	per_tert_l	ext_dig_l	ext_hal_l	ercspn_r	ercspn_l	intobl_r	intobl_l	extobl_r	extobl_l	femur_lat_meniscii_r.femur_lat_r.force.X	femur_lat_meniscii_r.femur_lat_r.force.Y	femur_lat_meniscii_r.femur_lat_r.force.Z	femur_lat_meniscii_r.femur_lat_r.torque.X	femur_lat_meniscii_r.femur_lat_r.torque.Y	femur_lat_meniscii_r.femur_lat_r.torque.Z	femur_lat_meniscii_r.meniscus_lat_r.force.X	femur_lat_meniscii_r.meniscus_lat_r.force.Y	femur_lat_meniscii_r.meniscus_lat_r.force.Z	femur_lat_meniscii_r.meniscus_lat_r.torque.X	femur_lat_meniscii_r.meniscus_lat_r.torque.Y	femur_lat_meniscii_r.meniscus_lat_r.torque.Z	femur_med_meniscii_r.femur_med_r.force.X	femur_med_meniscii_r.femur_med_r.force.Y	femur_med_meniscii_r.femur_med_r.force.Z	femur_med_meniscii_r.femur_med_r.torque.X	femur_med_meniscii_r.femur_med_r.torque.Y	femur_med_meniscii_r.femur_med_r.torque.Z	femur_med_meniscii_r.meniscus_med_r.force.X	femur_med_meniscii_r.meniscus_med_r.force.Y	femur_med_meniscii_r.meniscus_med_r.force.Z	femur_med_meniscii_r.meniscus_med_r.torque.X	femur_med_meniscii_r.meniscus_med_r.torque.Y	femur_med_meniscii_r.meniscus_med_r.torque.Z	femur_med_tibia_r.tibia_upper_r.force.X	femur_med_tibia_r.tibia_upper_r.force.Y	femur_med_tibia_r.tibia_upper_r.force.Z	femur_med_tibia_r.tibia_upper_r.torque.X	femur_med_tibia_r.tibia_upper_r.torque.Y	femur_med_tibia_r.tibia_upper_r.torque.Z	femur_med_tibia_r.femur_med_r.force.X	femur_med_tibia_r.femur_med_r.force.Y	femur_med_tibia_r.femur_med_r.force.Z	femur_med_tibia_r.femur_med_r.torque.X	femur_med_tibia_r.femur_med_r.torque.Y	femur_med_tibia_r.femur_med_r.torque.Z	femur_lat_tibia_r.tibia_upper_r.force.X	femur_lat_tibia_r.tibia_upper_r.force.Y	femur_lat_tibia_r.tibia_upper_r.force.Z	femur_lat_tibia_r.tibia_upper_r.torque.X	femur_lat_tibia_r.tibia_upper_r.torque.Y	femur_lat_tibia_r.tibia_upper_r.torque.Z	femur_lat_tibia_r.femur_lat_r.force.X	femur_lat_tibia_r.femur_lat_r.force.Y	femur_lat_tibia_r.femur_lat_r.force.Z	femur_lat_tibia_r.femur_lat_r.torque.X	femur_lat_tibia_r.femur_lat_r.torque.Y	femur_lat_tibia_r.femur_lat_r.torque.Z	aACL_R	pACL_R	aPCL_R	pPCL_R	aMCL_R	mMCL_R	pMCL_R	aLCL_R	mLCL_R	pLCL_R	aPCL_L	pPCL_L	aMCL_L	aLCL_L
      0.20894431	      9.73152606	      7.16146705	      7.68813944	      3.32765696	      3.90497427	      4.11439419	      0.00000000	    164.28119676	    180.73614011	    338.05736048	    122.77033057	      7.11475810	      5.17185080	      3.68376277	      3.11408582	      5.18216585	      3.45242167	      2.80591843	     93.00024393	      4.62188848	      7.02843457	      5.26854078	     25.37223163	     16.05132993	      4.56118900	      3.29819424	      5.58172360	    101.55931679	     40.97982194	    496.55516243	     55.68807954	      0.00000000	      0.00000000	      0.00000000	      0.00000000	      0.00000000	      0.00000000	     35.20064314	      1.60811692	      3.68826965	     22.12828634	     48.28018215	     11.97964677	      9.73152606	      7.16146705	      7.68813944	      3.32765696	      3.90497427	      4.11439419	     10.57578163	      5.25283970	     10.28159281	      9.07703345	      1.89998642	      7.11475810	      5.17185080	      3.68376277	      3.11408582	      5.18216585	      4.83684996	      2.80591843	      1.95634666	      4.62188848	      7.02843457	      5.26854078	     25.37223163	     16.05132993	      4.56118900	      3.29819424	      5.58172360	     14.22967190	      0.00000000	      0.00000000	      0.00000000	     19.36014277	      9.04498363	     43.06923616	     47.31410580	      4.19663994	      3.65506719	     11.14915370	      5.90021871	     15.85533780	      2.48289596	      7.87901884	      2.52337603	     31.31179046	     31.31179046	     11.49341525	     11.49341525	     29.04743923	     29.04743923	     83.07642915	     65.47616592	     12.68932499	     -6.60305445	      1.99774706	     32.77872284	    -83.07642915	    -65.47616592	    -12.68932499	      1.77783184	     -2.56880037	      1.75838971	      0.04727278	      0.00159124	     -0.03000034	      0.01194972	     -0.00073815	      0.01878986	     -0.04727278	     -0.00159124	      0.03000034	     -0.00011472	      0.00142272	     -0.00010465	   -896.16705395	   -392.20193856	    307.91930306	     -8.38643691	     21.48079171	      3.15047676	    896.16705395	    392.20193856	   -307.91930306	    130.88577041	    -15.57682756	    360.89104933	   -327.48540626	   -159.29243427	    -97.61871855	      5.20663783	    -11.68155770	      1.60363371	    327.48540626	    159.29243427	     97.61871855	    -43.26760521	      8.13951952	    131.86084363	      0.00000000	      0.00000000	    976.77498278	    634.63584407	     33.08195796	     20.28045221	      0.00000000	      0.00000000	      0.00000000	      0.00000000	      0.00000000	      0.00000000	      0.00000001	      0.00000000
      0.20897477	      9.73065416	      7.16087125	      7.68749190	      3.32739177	      3.90468535	      4.11402554	      0.00000000	    164.25194762	    180.68919345	    337.79525455	    122.74005657	      7.11415920	      5.17144246	      3.68345858	      3.11382204	      5.18168751	      3.45319683	      2.80569327	     92.97367723	      4.62150315	      7.02784706	      5.26809289	     25.37114118	     16.05008961	      4.56081749	      3.29801544	      5.58124849	    102.12915827	     40.92282240	    187.13467930	     55.61786286	      0.00000000	      0.00000000	      0.00000000	      0.00000000	      0.00000000	      0.00000000	     35.20167499	      1.60560326	      3.68504985	     22.12115489	     48.26790287	     11.97600903	      9.73065416	      7.16087125	      7.68749190	      3.32739177	      3.90468535	      4.11402554	     10.57634716	      5.25237183	     10.28057951	      9.07629344	      1.89983571	      7.11415920	      5.17144246	      3.68345858	      3.11382204	      5.18168751	      4.83655393	      2.80569327	      1.95618873	      4.62150315	      7.02784706	      5.26809289	     25.37114118	     16.05008961	      4.56081749	      3.29801544	      5.58124849	     14.22826255	      0.00000000	      0.00000000	      0.00000000	     19.35868662	      9.04426093	     43.06488644	     47.31219786	      4.19572441	      3.65424813	     11.14808411	      5.89961074	     15.85408670	      2.48270458	      7.87859202	      2.52325073	     31.30928939	     31.30928939	     11.49241901	     11.49241901	     29.04654102	     29.04654102	     81.56877054	     65.06386001	     12.74168098	     -6.61491810	      1.96251845	     32.17289813	    -81.56877054	    -65.06386001	    -12.74168098	      1.76787090	     -2.53092908	      1.75909806	      0.04584198	      0.00160456	     -0.02912901	      0.01160319	     -0.00071610	      0.01822053	     -0.04584198	     -0.00160456	      0.02912901	     -0.00011160	      0.00138100	     -0.00009893	   -893.09275172	   -391.49688989	    306.59898796	     -8.35736659	     21.39636091	      3.17403884	    893.09275172	    391.49688989	   -306.59898796	    130.33592273	    -15.51931624	    359.64193066	   -326.56797075	   -158.89409003	    -97.92582404	      5.20086496	    -11.67251699	      1.60505935	    326.56797075	    158.89409003	     97.92582404	    -43.38452524	      8.12432022	    131.48902568	      0.00000000	      0.00000000	    977.54698452	    636.01331252	     33.55903731	     20.83828156	      0.00000000	      0.00000000	      0.00000000	      0.00000000	      0.00000000	      0.00000000	      0.00000001	      0.00000000
      0.20905556	      9.72834339	      7.15929221	      7.68577576	      3.32668893	      3.90391963	      4.11304852	      0.00000000	    164.17738773	    180.56557449	    337.13446884	    122.66525175	      7.11257195	      5.17036026	      3.68265240	      3.11312294	      5.18041977	      3.45532644	      2.80509654	     92.90718873	      4.62048194	      7.02629002	      5.26690587	     25.36825123	     16.04680246	      4.55983289	      3.29754159	      5.57998873	    103.61194060	     40.77875051	     96.35990599	     55.45636069	      0.00000000	      0.00000000	      0.00000000	      0.00000000	      0.00000000	      0.00000000	     35.20413404	      1.59897811	      3.67652628	     22.10230049	     48.23526852	     11.96633428	      9.72834339	      7.15929221	      7.68577576	      3.32668893	      3.90391963	      4.11304852	     10.57783289	      5.25113186	     10.27789385	      9.07433219	      1.89943629	      7.11257195	      5.17036026	      3.68265240	      3.11312294	      5.18041977	      4.83576937	      2.80509654	      1.95577019	      4.62048194	      7.02629002	      5.26690587	     25.36825123	     16.04680246	      4.55983289	      3.29754159	      5.57998873	     14.22452734	      0.00000000	      0.00000000	      0.00000000	     19.35482476	      9.04234445	     43.05335671	     47.30714105	      4.19329666	      3.65207744	     11.14524934	      5.89799941	     15.85077062	      2.48219736	      7.87745968	      2.52291812	     31.30266087	     31.30266087	     11.48977872	     11.48977872	     29.04416055	     29.04416055	     81.68717353	     64.90163606	     12.40469676	     -6.47595407	      1.96200278	     32.22119415	    -81.68717353	    -64.90163606	    -12.40469676	      1.76122339	     -2.52174010	      1.75471830	      0.04471045	      0.00155677	     -0.02845306	      0.01133368	     -0.00069874	      0.01777063	     -0.04471045	     -0.00155677	      0.02845306	     -0.00010837	      0.00134855	     -0.00009588	   -886.98855427	   -387.27030506	    305.42241766	     -8.28639262	     21.28388131	      3.11898791	    886.98855427	    387.27030506	   -305.42241766	    129.79421672	    -15.42079006	    357.19068160	   -325.27432174	   -156.41276558	    -97.27327466	      5.13138537	    -11.61650374	      1.53476588	    325.27432174	    156.41276558	     97.27327466	    -43.06579730	      8.08865757	    130.98765955	      0.00000000	      0.00000000	    978.35423788	    636.25748014	     33.51137257	     20.72096658	      0.00000000	      0.00000000	      0.00000000	      0.00000000	      0.00000000	      0.00000000	      0.00000001	      0.00000000
      0.20926907	      9.72224839	      7.15512732	      7.68124928	      3.32483508	      3.90189998	      4.11047156	      0.00000000	    164.03282954	    180.28981690	    335.78085822	    122.52028178	      7.10838545	      5.16750579	      3.68052592	      3.11127903	      5.17707603	      3.46046991	      2.80352259	     92.77597056	      4.61778838	      7.02218319	      5.26377503	     25.36062880	     16.03813252	      4.55723590	      3.29629179	      5.57666181	    107.43085665	     40.48552156	     72.16907805	     55.20199252	      0.00000000	      0.00000000	      0.00000000	      0.00000000	      0.00000000	      0.00000000	     35.20669365	      1.58214372	      3.65456682	     22.05294994	     48.14808392	     11.94033293	      9.72224839	      7.15512732	      7.68124928	      3.32483508	      3.90189998	      4.11047156	     10.58166114	      5.24786135	     10.27080921	      9.06915917	      1.89838274	      7.10838545	      5.16750579	      3.68052592	      3.11127903	      5.17707603	      4.83370003	      2.80352259	      1.95466622	      4.61778838	      7.02218319	      5.26377503	     25.36062880	     16.03813252	      4.55723590	      3.29629179	      5.57666181	     14.21467503	      0.00000000	      0.00000000	      0.00000000	     19.34461983	      9.03728142	     43.02293312	     47.29380138	      4.18688522	      3.64635227	     11.13777202	      5.89374894	     15.84202172	      2.48085957	      7.87446485	      2.52203714	     31.28517723	     31.28517723	     11.48281475	     11.48281475	     29.03788192	     29.03788192	     84.61993872	     65.45958175	     11.09518379	     -5.96001558	      2.01598968	     33.39736452	    -84.61993872	    -65.45958175	    -11.09518379	      1.76296482	     -2.54860971	      1.75475828	      0.03980705	     -0.00063808	     -0.02515739	      0.01000017	     -0.00062045	      0.01583857	     -0.03980705	      0.00063808	      0.02515739	     -0.00007958	      0.00119458	     -0.00015557	   -873.92459674	   -376.18438765	    303.28633141	     -8.11181151	     21.05721532	      2.93521920	    873.92459674	    376.18438765	   -303.28633141	    128.75981591	    -15.21324420	    351.96263851	   -322.07557680	   -152.27290969	    -94.77601761	      4.98944782	    -11.44378185	      1.44210316	    322.07557680	    152.27290969	     94.77601761	    -41.95369295	      7.98999884	    129.72186079	      0.00000000	      0.00000000	    979.60857168	    634.71675689	     32.18545514	     19.10752768	      0.00000000	      0.00000000	      0.00000000	      0.00000000	      0.00000000	      0.00000000	      0.00000001	      0.00000000
